<?xml version="1.0" encoding="UTF-8"?>
<svg width="516px" height="375px" viewBox="0 0 516 375" version="1.1" xmlns="http://www.w3.org/2000/svg" xmlns:xlink="http://www.w3.org/1999/xlink">
    <!-- Generator: Sketch 55.1 (78136) - https://sketchapp.com -->
    <title>Group 13 Copy 2</title>
    <desc>Created with Sketch.</desc>
    <defs>
        <polygon id="path-1" points="0.000257172022 0.0344122137 452.820396 0.0344122137 452.820396 69.8074412 0.000257172022 69.8074412"/>
        <linearGradient x1="-6.98520119%" y1="48.812876%" x2="106.089342%" y2="51.187124%" id="linearGradient-3">
            <stop stop-color="#47C9FF" offset="0%"/>
            <stop stop-color="#03E3D9" offset="22.1915125%"/>
            <stop stop-color="#4345BC" offset="100%"/>
        </linearGradient>
        <linearGradient x1="-6.98520119%" y1="43.3554626%" x2="106.089342%" y2="56.6445374%" id="linearGradient-4">
            <stop stop-color="#47C9FF" offset="0%"/>
            <stop stop-color="#03E3D9" offset="22.1915125%"/>
            <stop stop-color="#4345BC" offset="100%"/>
        </linearGradient>
        <polygon id="path-5" points="0.000257172022 0.11974739 452.820139 0.11974739 452.820139 69.9864104 0.000257172022 69.9864104"/>
        <linearGradient x1="-6.98520119%" y1="48.8096833%" x2="106.089342%" y2="51.1903167%" id="linearGradient-7">
            <stop stop-color="#47C9FF" offset="0%"/>
            <stop stop-color="#03E3D9" offset="22.1915125%"/>
            <stop stop-color="#4345BC" offset="100%"/>
        </linearGradient>
    </defs>
    <g id="Page-1-Copy" stroke="none" stroke-width="1" fill="none" fill-rule="evenodd">
        <g id="CABECERA-FACEBOOK" transform="translate(-60.000000, -128.000000)">
            <g id="Group-13-Copy-2" transform="translate(318.000000, 315.500000) rotate(7.000000) translate(-318.000000, -315.500000) translate(39.000000, 161.000000)">
                <g id="Group-3" transform="translate(0.994586, 0.465379)">
                    <mask id="mask-2" fill="white">
                        <use xlink:href="#path-1"/>
                    </mask>
                    <g id="Clip-2"/>
                    <path d="M431.965674,21.741487 C423.45778,8.51821985 404.846241,0.0342198473 384.348345,0.0342198473 L321.2229,0.0342198473 L294.462223,0.0342198473 L0.000257172022,0.0342198473 L20.8536935,48.0995328 C29.3628728,61.3234412 47.9737691,69.8074412 68.4716652,69.8074412 L325.175634,69.8074412 L351.936312,69.8074412 L452.820396,69.8074412 L431.965674,21.741487 Z" id="Fill-1" fill="url(#linearGradient-3)" mask="url(#mask-2)"/>
                </g>
                <path d="M450.05624,189.512808 L404.680478,189.512808 L377.938922,189.512808 L121.417736,189.512808 C100.934486,189.512808 82.3375308,181.019875 73.8344317,167.782043 L63.3597167,143.596479 C63.111611,143.238869 62.8709222,142.877598 62.6378192,142.512743 L48.2871166,110.830893 L27.9187092,63.4236757 C27.7978666,63.1564109 28.1758211,62.9517661 28.3268744,63.2035373 C37.0391123,77.8010998 70.369175,119.156772 107.329016,119.468581 L107.73589,119.66548 L347.246814,119.66548 L373.98837,119.66548 L437.069351,119.66548 C457.5526,119.66548 476.150198,128.158413 484.652655,141.396245 L505.290308,189.046027 L509.503467,198.347395 L529.871798,245.754612 C529.99264,246.021877 529.614687,246.226522 529.463634,245.974751 C520.751429,231.377188 487.42149,190.020871 450.461788,189.709062 L450.05624,189.512808 Z" id="Combined-Shape" fill="url(#linearGradient-4)"/>
                <g id="Group-12" transform="translate(104.788467, 238.591040)">
                    <mask id="mask-6" fill="white">
                        <use xlink:href="#path-5"/>
                    </mask>
                    <g id="Clip-11"/>
                    <path d="M431.965674,21.8566276 C423.45778,8.61507029 404.846241,0.11974739 384.348345,0.11974739 L321.2229,0.11974739 L294.462223,0.11974739 L0.000257172022,0.11974739 L20.8536935,48.2498513 C29.3628728,61.4914085 47.9737691,69.9867314 68.4716652,69.9867314 L325.175634,69.9867314 L351.936312,69.9867314 L452.820396,69.9867314 L431.965674,21.8566276 Z" id="Fill-10" fill="url(#linearGradient-7)" mask="url(#mask-6)"/>
                </g>
            </g>
        </g>
    </g>
</svg>